<svg xmlns="http://www.w3.org/2000/svg" width="33.62" height="33.62" viewBox="0 0 33.62 33.62"><defs><style>.a{fill:#fff;}</style></defs><g transform="translate(-3.375 -3.375)"><path class="a" d="M24.928,23.1l-4.259-4.259,4.259-4.259A1.292,1.292,0,0,0,23.1,12.758l-4.259,4.259-4.259-4.259a1.292,1.292,0,0,0-1.826,1.826l4.259,4.259L12.757,23.1a1.249,1.249,0,0,0,0,1.826,1.283,1.283,0,0,0,1.826,0l4.259-4.259L23.1,24.929a1.3,1.3,0,0,0,1.826,0A1.283,1.283,0,0,0,24.928,23.1Z" transform="translate(1.342 1.341)"/><path class="a" d="M20.185,5.638A14.541,14.541,0,1,1,9.9,9.9,14.451,14.451,0,0,1,20.185,5.638m0-2.263a16.81,16.81,0,1,0,16.81,16.81,16.807,16.807,0,0,0-16.81-16.81Z"/></g></svg>